<svg xmlns="http://www.w3.org/2000/svg" version="1.1" xmlns:xlink="http://www.w3.org/1999/xlink" xmlns:svgjs="http://svgjs.com/svgjs" width="512" height="512"><svg width="512" height="512" version="1.1" viewBox="0 0 512 512" xmlns="http://www.w3.org/2000/svg">
 <path d="m260.51 0.073564c-0.56767 0.56652-0.62538 220.27-0.06 222.38 0.4783 1.7766 3.6681-1.1646 16.375-15.108 4.3827-4.8087 10.535-11.418 13.67-14.688 5.7437-5.9907 11.488-12.078 20.402-21.622 6.6706-7.143 7.4446-7.9789 15.003-16.215 9.1526-9.9706 25.158-26.972 35.137-37.322 5.4514-5.655 5.4268-6.1044-0.68649-12.181-1.7991-1.7888-4.3793-4.5079-5.7334-6.0432-2.1876-2.4795-18.007-19.763-19.913-21.756-11.579-12.1-24.573-25.89-31.226-33.14-1.939-2.1123-5.001-5.4347-12.253-13.293-2.6624-2.8852-9.1612-9.8097-14.439-15.388-5.2796-5.5781-10.183-10.784-10.897-11.567-2.4279-2.6649-4.9047-4.5342-5.3793-4.0603m-181.95 70.347c0 1.9637 12.542 14.849 77.924 80.062 41.73 41.622 76.738 76.344 77.794 77.159 2.1982 1.6962 3.6258 1.2416 3.0672-0.97746-0.66564-2.6509-1.7956-28.508-2.5384-58.134-0.39575-15.772-1.0369-34.658-1.4276-41.967-0.39067-7.3092-1.0072-21.274-1.3734-31.034-0.38522-10.284-0.97376-18.114-1.3978-18.624-0.53414-0.64173-5.6106-1.0072-18.759-1.3534-9.9162-0.25907-22.443-0.75712-27.838-1.1069-9.1701-0.59481-18.102-0.91976-77.775-2.8327-12.717-0.40778-24.147-0.91456-25.399-1.1262-1.2524-0.21346-2.2772-0.24122-2.2772-0.066009m282.95 86.698c-65.744 65.634-78.085 78.256-77.216 78.976 1.2734 1.0562 35.939 0.47054 63.679-1.0754 10.02-0.55976 32.406-1.3516 49.748-1.7609 17.342-0.41108 33.14-0.91628 35.109-1.1261l3.5787-0.37802 0.45342-9.2309c0.24906-5.0762 0.77245-22.134 1.1632-37.906 0.39253-15.772 1.17-37.018 1.7306-47.213 1.6588-30.174 2.0898-56.099 0.9547-57.354-0.82336-0.90932-11.389 9.3725-79.201 77.068m-254.94-7.2515c-1.743 1.801-6.2957 6.1079-10.116 9.5702-3.8204 3.4622-7.7547 7.0679-8.7409 8.0139-0.98794 0.94429-3.8449 3.6004-6.3498 5.8999-3.9378 3.6161-8.5535 7.9317-26.638 24.905-1.8445 1.7312-5.961 5.5081-9.149 8.3934-3.1863 2.8852-6.292 5.7389-6.8999 6.3422-0.60784 0.60338-3.4701 3.2647-6.3604 5.9156-2.8903 2.6509-9.8269 9.112-15.415 14.358-14.625 13.73-15.648 14.652-16.261 14.652-1.3523 0-0.38187 2.1998 1.2419 2.8153 1.1403 0.43222 41.347 0.68199 109.87 0.68199 118.94 0 113.41 0.20091 108.69-3.9414-2.9515-2.5897-15.007-13.604-16.76-15.313-0.80242-0.77986-4.2953-4.069-7.7635-7.3074-3.4684-3.2384-8.8338-8.2657-11.924-11.172-3.0901-2.9044-9.0511-8.4301-13.246-12.277-11.125-10.203-10.664-9.7782-20.425-18.885-4.9468-4.6163-12.004-11.259-15.683-14.764-3.6784-3.5025-8.2645-7.7586-10.191-9.4565-1.9269-1.6979-4.2917-3.8696-5.2551-4.8279-7.5394-7.4893-8.5797-7.7866-12.63-3.6039m147.47 87.52c-17.851 2.8048-19.538 29.56-2.1808 34.598 7.6725 2.226 20.786-2.0878 20.786-6.8388 0-0.46526 0.61299-2.0441 1.361-3.5094 6.08-11.908-5.8997-26.46-19.966-24.25m36.838 24.101c-2.1092 0.93898-1.9551 1.1698 5.0115 7.5085 3.5366 3.2174 8.1627 7.4228 10.279 9.3463 2.1178 1.9235 4.353 3.9694 4.9678 4.5464 0.61486 0.57695 6.7895 6.3772 13.719 12.889 14.66 13.774 20.542 19.242 30.534 28.378 6.8682 6.281 9.4503 8.6853 24.793 23.082 19.918 18.689 20.845 19.411 22.339 17.407 0.43957-0.5895 4.5877-4.5114 9.2193-8.7151 8.1102-7.3599 11.566-10.56 23.783-22.018 15.634-14.664 21.283-19.899 36.176-33.537 3.992-3.6546 12.784-11.859 19.536-18.231 16.576-15.641 16.177-15.274 18.801-17.287 4.945-3.7945 9.7097-3.6266-108.65-3.8208-63.819-0.10501-109.68 0.0818-110.51 0.4514m-91.804 14.186c-3.2756 0.10634-15.572 0.67323-27.326 1.2573-11.754 0.58423-34.613 1.3761-50.799 1.7591-16.186 0.38265-33.088 0.89702-37.561 1.1418l-8.1331 0.4461-0.45191 9.523c-0.24703 5.2388-0.77251 21.957-1.1684 37.153-0.39414 15.195-1.1684 36.284-1.7202 46.863-1.8725 35.962-2.1651 58.643-0.76199 59.182 0.8636 0.33046 1.8375-0.30598 3.4298-2.2382 2.8307-3.4325 151.07-151.06 153.14-152.51 4.183-2.9254-1.692-3.4535-28.65-2.574m75.398 7.7936c-0.17703 0.28484-0.0433 3.6546 0.29416 7.4893 0.33991 3.833 0.95477 17.672 1.3681 30.751 1.9199 60.712 3.1985 94.228 4.0849 107.02l0.48359 6.9944 10.86 0.5036c5.9732 0.27624 17.797 0.83589 26.275 1.2433 16.963 0.81308 41.042 1.6542 80.577 2.8118 14.259 0.41769 27.817 1.0247 30.129 1.35 4.4596 0.62454 6.0116 0.13478 4.2338-1.3376-0.59386-0.49304-1.0808-1.2188-1.0808-1.614 0-0.90581-153.27-153.69-154.18-153.69-0.36624 0-0.66564-0.28154-0.66564-0.62387 0-0.82191-1.9656-1.5616-2.3771-0.89533m-26.701 7.5015c-1.5415 1.558-5.7982 6.1097-9.4592 10.114-7.9211 8.6644-9.1209 9.9513-15.649 16.79-2.7607 2.8922-9.1193 9.6314-14.129 14.977-5.0098 5.3455-9.897 10.56-10.86 11.588-0.96347 1.0264-3.013 3.2647-4.5545 4.9731-5.388 5.968-11.845 12.912-17.491 18.81-3.1301 3.2699-9.4818 10.037-14.113 15.038-4.6332 5.001-9.897 10.625-11.699 12.496-3.7223 3.8644-3.8397 5.6918-0.57115 8.8759 1.009 0.98276 4.0412 4.2456 6.7388 7.2497 5.192 5.781 13.423 14.62 23.823 25.582 5.8926 6.2111 20.931 22.281 24.874 26.579 0.96345 1.0509 4.7471 5.1409 8.4081 9.0893 3.661 3.9501 7.4447 8.0454 8.4081 9.1033 1.7657 1.9392 17.261 18.283 24.667 26.018 2.1984 2.2977 4.3267 3.9728 4.7295 3.7245 0.82507-0.5089 0.98107-220.98 0.15759-222.79-0.37311-0.82183-1.0858-0.43354-3.279 1.7853" fill="#754dac" fill-rule="evenodd" stroke-width="1.7502"></path>
</svg><style>@media (prefers-color-scheme: light) { :root { filter: none; } }
</style></svg>